<?xml version="1.0" standalone="no"?>
<!DOCTYPE svg PUBLIC "-//W3C//DTD SVG 20010904//EN"
 "http://www.w3.org/TR/2001/REC-SVG-20010904/DTD/svg10.dtd">
<svg version="1.0" xmlns="http://www.w3.org/2000/svg"
 width="194.000000pt" height="183.000000pt" viewBox="0 0 194.000000 183.000000"
 preserveAspectRatio="xMidYMid meet">
<metadata>
Created by potrace 1.10, written by Peter Selinger 2001-2011
</metadata>
<g transform="translate(0.000000,183.000000) scale(0.100000,-0.100000)"
fill="#000000" stroke="none">
<path d="M386 1373 c13 -9 42 -83 230 -580 l129 -343 56 0 c54 0 57 2 64 28 3
15 18 55 31 89 25 62 25 63 8 118 -10 30 -20 53 -22 50 -8 -8 -72 -179 -72
-192 0 -7 -4 -13 -10 -13 -5 0 -10 5 -10 10 0 10 -79 223 -115 310 -87 210
-184 485 -175 494 7 7 14 6 23 -3 10 -10 9 -11 -5 -6 -11 4 -18 2 -18 -4 0
-10 25 -15 60 -12 11 1 48 -81 135 -300 l119 -301 19 55 18 55 -105 273 -104
274 -134 3 c-73 1 -128 -1 -122 -5z m92 -58 c0 -14 -4 -28 -9 -31 -5 -3 -6 3
-2 12 5 13 2 16 -8 12 -10 -4 -15 1 -15 12 0 11 5 16 15 12 10 -4 12 -1 6 8
-5 8 -4 11 2 7 6 -4 11 -18 11 -32z m301 -801 c1 5 8 3 16 -4 12 -10 15 -10
15 0 0 8 2 11 5 8 8 -8 -6 -38 -17 -38 -5 0 -6 5 -3 10 3 6 -3 10 -14 10 -15
0 -21 6 -20 23 0 21 1 21 9 2 5 -11 9 -16 9 -11z"/>
<path d="M871 1013 c77 -203 156 -412 176 -465 l36 -98 52 0 c41 0 54 4 60 17
4 10 33 88 65 173 32 85 108 285 169 443 61 159 111 291 111 293 0 2 -53 4
-119 4 l-119 0 -76 -199 c-78 -206 -83 -221 -66 -221 6 0 10 4 10 9 0 5 8 12
17 15 16 6 16 6 0 -12 -9 -10 -17 -27 -17 -38 -1 -18 -22 -54 -33 -54 -2 0 -8
11 -11 25 -4 14 -11 25 -16 25 -6 0 -10 8 -10 18 0 10 -5 23 -12 30 -7 7 -8
12 -2 12 14 0 44 -38 45 -58 0 -14 2 -14 8 3 5 11 5 25 2 30 -4 6 -29 70 -56
143 l-49 132 -44 0 c-32 0 -43 -4 -39 -12 39 -91 150 -371 163 -411 24 -74 25
-74 43 -24 9 25 59 154 111 286 l95 240 39 1 c33 0 37 -3 31 -17 -4 -10 -74
-189 -154 -399 l-146 -380 -143 380 c-79 210 -146 389 -149 399 -5 16 4 17
122 15 l128 -3 23 -65 c12 -36 23 -59 23 -52 1 7 16 51 35 97 l33 85 -237 0
-238 0 139 -367z m-41 330 c0 -3 -8 -15 -17 -26 -15 -17 -15 -19 -3 -15 10 4
16 0 16 -11 0 -10 -6 -18 -13 -18 -7 0 -11 3 -8 5 3 3 0 11 -5 18 -8 8 -6 16
4 27 8 8 12 17 9 21 -4 3 -1 6 5 6 7 0 12 -3 12 -7z m276 -808 c13 -14 31 -25
40 -23 9 2 19 -3 21 -10 3 -7 -1 -10 -11 -6 -10 4 -16 1 -16 -7 0 -8 -6 -5
-15 7 -15 18 -15 18 -8 0 4 -14 3 -17 -6 -12 -7 5 -9 16 -5 28 3 11 2 18 -3
15 -5 -3 -14 3 -21 14 -17 27 -4 24 24 -6z"/>
</g>
</svg>
